<svg width="38" height="40" viewBox="0 0 38 40" fill="none" xmlns="http://www.w3.org/2000/svg">
<path opacity="0.14" fill-rule="evenodd" clip-rule="evenodd" d="M20.1455 35.72C20.3455 34.88 20.1655 34 19.6055 33.08L10.1255 17.42C9.56547 16.46 9.00547 15.72 8.44547 15.2C9.00547 14.76 9.56547 14.04 10.1255 13.04L18.0194 0H9.41253L0.105469 14.54V15.92L15.0455 39.26L18.5255 37.58C19.4455 37.14 19.9855 36.52 20.1455 35.72ZM27.1725 0L17.8655 14.54V15.92L32.8055 39.26L36.2855 37.58C37.2055 37.14 37.7455 36.52 37.9055 35.72C38.1055 34.88 37.9255 34 37.3655 33.08L27.8855 17.42C27.3255 16.46 26.7655 15.72 26.2055 15.2C26.7655 14.76 27.3255 14.04 27.8855 13.04L35.7794 0H27.1725Z" fill="#EC966D"/>
</svg>
