<svg width="143" height="29" viewBox="0 0 143 29" fill="none" xmlns="http://www.w3.org/2000/svg">
<path d="M4.51131 14.3393H5.38731C5.69131 14.3393 5.93531 14.3033 6.11931 14.2313C6.30331 14.1513 6.47131 14.0193 6.62331 13.8353L12.3473 7.35533C12.5073 7.14733 12.6753 7.00333 12.8513 6.92333C13.0273 6.84333 13.2433 6.80333 13.4993 6.80333H15.4673L8.91531 14.2073C8.75531 14.3993 8.59931 14.5593 8.44731 14.6873C8.30331 14.8073 8.14731 14.9073 7.97931 14.9873C8.19531 15.0593 8.39131 15.1673 8.56731 15.3113C8.74331 15.4473 8.91531 15.6273 9.08331 15.8513L15.9233 23.9993H13.9073C13.7553 23.9993 13.6233 23.9913 13.5113 23.9753C13.4073 23.9513 13.3153 23.9193 13.2353 23.8793C13.1553 23.8313 13.0833 23.7793 13.0193 23.7233C12.9633 23.6593 12.9073 23.5873 12.8513 23.5073L6.92331 16.6793C6.76331 16.4793 6.59131 16.3393 6.40731 16.2593C6.22331 16.1713 5.94331 16.1273 5.56731 16.1273H4.51131V23.9993H2.19531V6.80333H4.51131V14.3393Z" fill="white"/>
<path d="M25.2499 15.1313C25.9219 15.1313 26.5139 15.0513 27.0259 14.8913C27.5459 14.7233 27.9779 14.4913 28.3219 14.1953C28.6739 13.8913 28.9379 13.5313 29.1139 13.1153C29.2899 12.6993 29.3779 12.2393 29.3779 11.7353C29.3779 10.7113 29.0419 9.93933 28.3699 9.41933C27.6979 8.89933 26.6899 8.63933 25.3459 8.63933H22.8019V15.1313H25.2499ZM33.1939 23.9993H31.1299C30.7059 23.9993 30.3939 23.8353 30.1939 23.5073L25.7299 17.3633C25.5939 17.1713 25.4459 17.0353 25.2859 16.9553C25.1339 16.8673 24.8939 16.8233 24.5659 16.8233H22.8019V23.9993H20.4859V6.80333H25.3459C26.4339 6.80333 27.3739 6.91533 28.1659 7.13933C28.9579 7.35533 29.6099 7.67133 30.1219 8.08733C30.6419 8.50333 31.0259 9.00733 31.2739 9.59933C31.5219 10.1833 31.6459 10.8393 31.6459 11.5673C31.6459 12.1753 31.5499 12.7433 31.3579 13.2713C31.1659 13.7993 30.8859 14.2753 30.5179 14.6993C30.1579 15.1153 29.7139 15.4713 29.1859 15.7673C28.6659 16.0633 28.0739 16.2873 27.4099 16.4393C27.7059 16.6073 27.9619 16.8513 28.1779 17.1713L33.1939 23.9993Z" fill="white"/>
<path d="M47.0648 17.6153L44.3648 10.6193C44.2848 10.4113 44.2008 10.1713 44.1128 9.89933C44.0248 9.61933 43.9408 9.32333 43.8608 9.01133C43.6928 9.65933 43.5208 10.1993 43.3448 10.6313L40.6448 17.6153H47.0648ZM51.9128 23.9993H50.1128C49.9048 23.9993 49.7368 23.9473 49.6088 23.8433C49.4808 23.7393 49.3848 23.6073 49.3208 23.4473L47.7128 19.2953H39.9968L38.3888 23.4473C38.3408 23.5913 38.2488 23.7193 38.1128 23.8313C37.9768 23.9433 37.8088 23.9993 37.6088 23.9993H35.8088L42.6848 6.80333H45.0368L51.9128 23.9993Z" fill="white"/>
<path d="M65.371 9.49133C65.299 9.61133 65.219 9.70333 65.131 9.76733C65.051 9.82333 64.951 9.85133 64.831 9.85133C64.695 9.85133 64.535 9.78333 64.351 9.64733C64.167 9.51133 63.935 9.36333 63.655 9.20333C63.383 9.03533 63.051 8.88333 62.659 8.74733C62.275 8.61133 61.807 8.54333 61.255 8.54333C60.735 8.54333 60.275 8.61533 59.875 8.75933C59.483 8.89533 59.151 9.08333 58.879 9.32333C58.615 9.56333 58.415 9.84733 58.279 10.1753C58.143 10.4953 58.075 10.8433 58.075 11.2193C58.075 11.6993 58.191 12.0993 58.423 12.4193C58.663 12.7313 58.975 12.9993 59.359 13.2233C59.751 13.4473 60.191 13.6433 60.679 13.8113C61.175 13.9713 61.679 14.1393 62.191 14.3153C62.711 14.4913 63.215 14.6913 63.703 14.9153C64.199 15.1313 64.639 15.4073 65.023 15.7433C65.415 16.0793 65.727 16.4913 65.959 16.9793C66.199 17.4673 66.319 18.0673 66.319 18.7793C66.319 19.5313 66.191 20.2393 65.935 20.9033C65.679 21.5593 65.303 22.1313 64.807 22.6193C64.319 23.1073 63.715 23.4913 62.995 23.7713C62.283 24.0513 61.471 24.1913 60.559 24.1913C59.439 24.1913 58.423 23.9913 57.511 23.5913C56.599 23.1833 55.819 22.6353 55.171 21.9473L55.843 20.8433C55.907 20.7553 55.983 20.6833 56.071 20.6273C56.167 20.5633 56.271 20.5313 56.383 20.5313C56.487 20.5313 56.603 20.5753 56.731 20.6633C56.867 20.7433 57.019 20.8473 57.187 20.9753C57.355 21.1033 57.547 21.2433 57.763 21.3953C57.979 21.5473 58.223 21.6873 58.495 21.8153C58.775 21.9433 59.091 22.0513 59.443 22.1393C59.795 22.2193 60.191 22.2593 60.631 22.2593C61.183 22.2593 61.675 22.1833 62.107 22.0313C62.539 21.8793 62.903 21.6673 63.199 21.3953C63.503 21.1153 63.735 20.7833 63.895 20.3993C64.055 20.0153 64.135 19.5873 64.135 19.1153C64.135 18.5953 64.015 18.1713 63.775 17.8433C63.543 17.5073 63.235 17.2273 62.851 17.0033C62.467 16.7793 62.027 16.5913 61.531 16.4393C61.035 16.2793 60.531 16.1193 60.019 15.9593C59.507 15.7913 59.003 15.5993 58.507 15.3833C58.011 15.1673 57.571 14.8873 57.187 14.5433C56.803 14.1993 56.491 13.7713 56.251 13.2593C56.019 12.7393 55.903 12.0993 55.903 11.3393C55.903 10.7313 56.019 10.1433 56.251 9.57533C56.491 9.00733 56.835 8.50333 57.283 8.06333C57.739 7.62333 58.295 7.27133 58.951 7.00733C59.615 6.74333 60.375 6.61133 61.231 6.61133C62.191 6.61133 63.063 6.76333 63.847 7.06733C64.639 7.37133 65.335 7.81133 65.935 8.38733L65.371 9.49133Z" fill="white"/>
<path d="M78.6423 22.1513C79.3542 22.1513 79.9902 22.0313 80.5502 21.7913C81.1102 21.5513 81.5822 21.2153 81.9662 20.7833C82.3582 20.3513 82.6543 19.8353 82.8542 19.2353C83.0622 18.6353 83.1663 17.9753 83.1663 17.2553V6.80333H85.4823V17.2553C85.4823 18.2473 85.3223 19.1673 85.0023 20.0153C84.6903 20.8633 84.2383 21.5993 83.6462 22.2233C83.0622 22.8393 82.3463 23.3233 81.4983 23.6753C80.6503 24.0273 79.6982 24.2033 78.6423 24.2033C77.5863 24.2033 76.6342 24.0273 75.7862 23.6753C74.9382 23.3233 74.2183 22.8393 73.6263 22.2233C73.0342 21.5993 72.5782 20.8633 72.2582 20.0153C71.9463 19.1673 71.7903 18.2473 71.7903 17.2553V6.80333H74.1062V17.2433C74.1062 17.9633 74.2063 18.6233 74.4062 19.2233C74.6143 19.8233 74.9102 20.3393 75.2943 20.7713C75.6862 21.2033 76.1623 21.5433 76.7223 21.7913C77.2903 22.0313 77.9303 22.1513 78.6423 22.1513Z" fill="white"/>
<path d="M105.987 6.80333V23.9993H104.823C104.639 23.9993 104.483 23.9673 104.355 23.9033C104.235 23.8393 104.115 23.7313 103.995 23.5793L94.0467 10.6193C94.0627 10.8193 94.0747 11.0153 94.0827 11.2073C94.0907 11.3993 94.0947 11.5793 94.0947 11.7473V23.9993H92.0547V6.80333H93.2547C93.3587 6.80333 93.4467 6.81133 93.5187 6.82733C93.5907 6.83533 93.6547 6.85533 93.7107 6.88733C93.7667 6.91133 93.8227 6.95133 93.8787 7.00733C93.9347 7.05533 93.9947 7.11933 94.0587 7.19933L104.007 20.1473C103.991 19.9393 103.975 19.7393 103.959 19.5473C103.951 19.3473 103.947 19.1593 103.947 18.9833V6.80333H105.987Z" fill="white"/>
<path d="M119.239 17.1473V23.9993H116.911V17.1473L110.611 6.80333H112.651C112.859 6.80333 113.023 6.85533 113.143 6.95933C113.263 7.05533 113.367 7.18333 113.455 7.34333L117.391 14.0273C117.535 14.3073 117.667 14.5713 117.787 14.8193C117.907 15.0593 118.011 15.3033 118.099 15.5513C118.187 15.3033 118.287 15.0593 118.399 14.8193C118.511 14.5713 118.635 14.3073 118.771 14.0273L122.695 7.34333C122.767 7.20733 122.867 7.08333 122.995 6.97133C123.123 6.85933 123.287 6.80333 123.487 6.80333H125.539L119.239 17.1473Z" fill="white"/>
<path d="M137.604 17.6153L134.904 10.6193C134.824 10.4113 134.74 10.1713 134.652 9.89933C134.564 9.61933 134.48 9.32333 134.4 9.01133C134.232 9.65933 134.06 10.1993 133.884 10.6313L131.184 17.6153H137.604ZM142.452 23.9993H140.652C140.444 23.9993 140.276 23.9473 140.148 23.8433C140.02 23.7393 139.924 23.6073 139.86 23.4473L138.252 19.2953H130.536L128.928 23.4473C128.88 23.5913 128.788 23.7193 128.652 23.8313C128.516 23.9433 128.348 23.9993 128.148 23.9993H126.348L133.224 6.80333H135.576L142.452 23.9993Z" fill="white"/>
</svg>
